<?xml version="1.0" encoding="UTF-8" standalone="no"?>
<!-- Created with Inkscape (http://www.inkscape.org/) -->

<svg
   version="1.1"
   id="svg1"
   width="120.46933"
   height="120.46933"
   viewBox="0 0 120.46933 120.46933"
   sodipodi:docname="logo.pdf"
   xmlns:inkscape="http://www.inkscape.org/namespaces/inkscape"
   xmlns:sodipodi="http://sodipodi.sourceforge.net/DTD/sodipodi-0.dtd"
   xmlns="http://www.w3.org/2000/svg"
   xmlns:svg="http://www.w3.org/2000/svg">
  <defs
     id="defs1">
    <clipPath
       clipPathUnits="userSpaceOnUse"
       id="clipPath2">
      <path
         d="M 0,0 H 27 V 27 H 0 Z"
         transform="matrix(1,0,0,-1,3.9848893e-7,27)"
         id="path2" />
    </clipPath>
    <clipPath
       clipPathUnits="userSpaceOnUse"
       id="clipPath3">
      <path
         d="M 0,0 H 27 V 27 H 0 Z"
         transform="matrix(1,0,0,-1,3.9848893e-7,27)"
         id="path3" />
    </clipPath>
    <clipPath
       clipPathUnits="userSpaceOnUse"
       id="clipPath4">
      <path
         d="M 0,0 H 27 V 27 H 0 Z"
         transform="matrix(1,0,0,-1,3.9848893e-7,27)"
         id="path4" />
    </clipPath>
    <clipPath
       clipPathUnits="userSpaceOnUse"
       id="clipPath5">
      <path
         d="M 0,0 H 27 V 27 H 0 Z"
         transform="matrix(1,0,0,-1,3.9848893e-7,27)"
         id="path5" />
    </clipPath>
    <clipPath
       clipPathUnits="userSpaceOnUse"
       id="clipPath6">
      <path
         d="M 0,0 H 27 V 27 H 0 Z"
         transform="matrix(1,0,0,-1,3.9848893e-7,27)"
         id="path6" />
    </clipPath>
    <clipPath
       clipPathUnits="userSpaceOnUse"
       id="clipPath7">
      <path
         d="M 0,0 H 27 V 27 H 0 Z"
         transform="matrix(1,0,0,-1,3.9848893e-7,27)"
         id="path7" />
    </clipPath>
    <clipPath
       clipPathUnits="userSpaceOnUse"
       id="clipPath8">
      <path
         d="M 0,0 H 27 V 27 H 0 Z"
         transform="matrix(1,0,0,-1,3.9848893e-7,27)"
         id="path8" />
    </clipPath>
    <clipPath
       clipPathUnits="userSpaceOnUse"
       id="clipPath16">
      <path
         d="M 0,0 H 27 V 27 H 0 Z"
         transform="matrix(1,0,0,-1,-3.9848893e-7,27.000001)"
         id="path16" />
    </clipPath>
    <clipPath
       clipPathUnits="userSpaceOnUse"
       id="clipPath17">
      <path
         d="M 0,0 H 27 V 27 H 0 Z"
         transform="matrix(1,0,0,-1,-3.9848893e-7,27.000001)"
         id="path17" />
    </clipPath>
    <clipPath
       clipPathUnits="userSpaceOnUse"
       id="clipPath18">
      <path
         d="M 0,0 H 27 V 27 H 0 Z"
         transform="matrix(1,0,0,-1,-3.9848893e-7,27.000001)"
         id="path18" />
    </clipPath>
    <clipPath
       clipPathUnits="userSpaceOnUse"
       id="clipPath19">
      <path
         d="M 0,0 H 27 V 27 H 0 Z"
         transform="matrix(1,0,0,-1,-3.9848893e-7,27.000001)"
         id="path19" />
    </clipPath>
    <clipPath
       clipPathUnits="userSpaceOnUse"
       id="clipPath20">
      <path
         d="M 0,0 H 27 V 27 H 0 Z"
         transform="matrix(1,0,0,-1,-3.9848893e-7,27.000001)"
         id="path20" />
    </clipPath>
    <clipPath
       clipPathUnits="userSpaceOnUse"
       id="clipPath21">
      <path
         d="M 0,0 H 27 V 27 H 0 Z"
         transform="matrix(1,0,0,-1,-3.9848893e-7,27.000001)"
         id="path21" />
    </clipPath>
    <clipPath
       clipPathUnits="userSpaceOnUse"
       id="clipPath22">
      <path
         d="M 0,0 H 27 V 27 H 0 Z"
         transform="matrix(1,0,0,-1,-3.9848893e-7,27.000001)"
         id="path22" />
    </clipPath>
    <clipPath
       clipPathUnits="userSpaceOnUse"
       id="clipPath30">
      <path
         d="M 0,0 H 27 V 27 H 0 Z"
         transform="matrix(1,0,0,-1,3.9848891e-7,27.000001)"
         id="path30" />
    </clipPath>
    <clipPath
       clipPathUnits="userSpaceOnUse"
       id="clipPath31">
      <path
         d="M 0,0 H 27 V 27 H 0 Z"
         transform="matrix(1,0,0,-1,3.9848891e-7,27.000001)"
         id="path31" />
    </clipPath>
    <clipPath
       clipPathUnits="userSpaceOnUse"
       id="clipPath32">
      <path
         d="M 0,0 H 27 V 27 H 0 Z"
         transform="matrix(1,0,0,-1,3.9848891e-7,27.000001)"
         id="path32" />
    </clipPath>
    <clipPath
       clipPathUnits="userSpaceOnUse"
       id="clipPath33">
      <path
         d="M 0,0 H 27 V 27 H 0 Z"
         transform="matrix(1,0,0,-1,3.9848891e-7,27.000001)"
         id="path33" />
    </clipPath>
    <clipPath
       clipPathUnits="userSpaceOnUse"
       id="clipPath34">
      <path
         d="M 0,0 H 27 V 27 H 0 Z"
         transform="matrix(1,0,0,-1,3.9848891e-7,27.000001)"
         id="path34" />
    </clipPath>
    <clipPath
       clipPathUnits="userSpaceOnUse"
       id="clipPath35">
      <path
         d="M 0,0 H 27 V 27 H 0 Z"
         transform="matrix(1,0,0,-1,3.9848891e-7,27.000001)"
         id="path35" />
    </clipPath>
    <clipPath
       clipPathUnits="userSpaceOnUse"
       id="clipPath36">
      <path
         d="M 0,0 H 27 V 27 H 0 Z"
         transform="matrix(1,0,0,-1,3.9848891e-7,27.000001)"
         id="path36" />
    </clipPath>
  </defs>
  <sodipodi:namedview
     id="namedview1"
     pagecolor="#ffffff"
     bordercolor="#000000"
     borderopacity="0.25"
     inkscape:showpageshadow="2"
     inkscape:pageopacity="0.0"
     inkscape:pagecheckerboard="0"
     inkscape:deskcolor="#d1d1d1">
    <inkscape:page
       x="0"
       y="0"
       inkscape:label="1"
       id="page1"
       width="120.46933"
       height="120.46933"
       margin="0"
       bleed="0" />
  </sodipodi:namedview>
  <g
     id="g1"
     inkscape:groupmode="layer"
     inkscape:label="1">
    <path
       id="path1"
       d="m 67.8537,14.17339 c 0,23.38501 -18.95676,42.34176 -42.34177,42.34176 -23.38499,0 -42.34175,-18.95675 -42.34175,-42.34176 0,-23.38499 18.95676,-42.34176 42.34175,-42.34176 23.38501,0 42.34177,18.95677 42.34177,42.34176 z"
       style="fill:#ffffff;fill-opacity:1;fill-rule:nonzero;stroke:none"
       transform="matrix(1.3333333,0,0,-1.3333333,26.218667,79.132)" />
    <g
       id="g15">
      <path
         d="m 17.234,14.207 c -0.039,1.539 -0.203,3.004 -0.468,4.316 C 15.68,18.656 14.59,18.73 13.5,18.742 V 14.25 c 1.414,-0.004 2.652,-0.016 3.734,-0.043 z M 15.969,4.016 c 0.683,0.121 1.336,0.277 1.961,0.457 -0.801,-0.684 -1.727,-1.2 -2.731,-1.516 0.274,0.297 0.531,0.652 0.77,1.059 z M 9.5,8.391 C 10.582,8.312 11.668,8.266 12.75,8.254 V 4.512 C 12.059,4.527 11.391,4.59 10.746,4.691 10.234,5.664 9.805,6.93 9.5,8.391 Z m -6.77,1.91 c -0.257,0.859 -0.41,1.746 -0.453,2.64 0.246,0.071 0.754,0.149 1.489,0.219 0.023,-1.113 0.179,-2.226 0.464,-3.305 -0.804,0.176 -1.324,0.34 -1.5,0.446 z M 12.75,13.5 V 9.004 C 11.547,9.012 10.41,9.066 9.363,9.145 9.121,10.566 9,12.004 9,13.445 c 1.133,0.032 2.383,0.051 3.75,0.055 z M 10.281,4.016 C 10.5,3.637 10.758,3.281 11.051,2.957 10.047,3.273 9.121,3.789 8.32,4.473 8.945,4.293 9.598,4.137 10.281,4.016 Z"
         style="fill:#ade3ff;fill-opacity:1;fill-rule:nonzero;stroke:none"
         transform="matrix(0.83649333,0,0,0.83649333,48.941333,11.14668)"
         clip-path="url(#clipPath2)"
         id="path9" />
      <path
         d="M 16.75,8.391 C 15.668,8.312 14.582,8.266 13.5,8.254 V 4.512 c 0.691,0.015 1.359,0.078 2.004,0.179 0.512,0.973 0.941,2.239 1.246,3.7 z M 4.305,17.398 C 3.98,16.266 3.797,15.094 3.766,13.914 3.074,13.836 2.59,13.746 2.258,13.656 c 0.015,1.067 0.18,2.098 0.48,3.067 0.157,0.136 0.707,0.39 1.567,0.675 z M 8.723,8.453 C 8.996,7.078 9.375,5.859 9.844,4.855 8.938,5.047 8.047,5.309 7.184,5.641 6.418,6.559 5.789,7.652 5.332,8.871 6.352,8.699 7.52,8.559 8.723,8.453 Z M 5.785,20.707 C 5.035,20.34 4.512,20 4.27,19.793 3.812,19.152 3.422,18.465 3.113,17.742 c 0.403,0.18 0.899,0.363 1.477,0.539 0.316,0.871 0.719,1.684 1.195,2.426 z M 18,13.426 c 1.504,-0.051 2.762,-0.121 3.738,-0.199 C 21.719,12.031 21.535,10.84 21.191,9.688 20.023,9.48 18.848,9.32 17.664,9.211 17.875,10.512 17.996,11.93 18,13.426 Z m 3.777,-4.395 c 0.547,0.11 1.028,0.235 1.414,0.367 C 22.855,8.582 22.422,7.812 21.902,7.105 21.656,6.898 21.145,6.578 20.426,6.223 c 0.566,0.875 1.019,1.82 1.351,2.808 z M 8.695,18.414 C 8.438,17.02 8.293,15.605 8.262,14.188 6.668,14.145 5.449,14.074 4.52,13.992 c 0.046,1.293 0.261,2.531 0.64,3.668 0.961,0.274 2.16,0.551 3.535,0.754 z"
         style="fill:#f0ffff;fill-opacity:1;fill-rule:nonzero;stroke:none"
         transform="matrix(0.83649333,0,0,0.83649333,48.941333,11.14668)"
         clip-path="url(#clipPath3)"
         id="path10" />
      <path
         d="m 15.535,22.242 c -0.648,0.098 -1.328,0.16 -2.035,0.176 v -2.926 c 1.031,-0.015 2.062,-0.082 3.09,-0.199 -0.281,1.145 -0.637,2.145 -1.055,2.949 z m 6.953,-9.082 c 0.731,-0.07 1.239,-0.148 1.485,-0.219 -0.043,-0.894 -0.196,-1.781 -0.453,-2.64 -0.176,-0.106 -0.696,-0.27 -1.497,-0.446 0.278,1.047 0.438,2.153 0.465,3.305 z m -11.297,9.899 c 0.473,0.683 1.004,1.125 1.559,1.265 v -1.156 c -0.52,-0.012 -1.043,-0.047 -1.559,-0.109 z"
         style="fill:#a8c1ff;fill-opacity:1;fill-rule:nonzero;stroke:none"
         transform="matrix(0.83649333,0,0,0.83649333,48.941333,11.14668)"
         clip-path="url(#clipPath4)"
         id="path11" />
      <path
         d="m 23.992,13.656 c -0.012,1.039 -0.176,2.074 -0.48,3.067 -0.157,0.136 -0.707,0.39 -1.567,0.675 0.317,-1.093 0.504,-2.265 0.539,-3.484 0.692,-0.078 1.176,-0.168 1.508,-0.258 z m -6.597,5.535 c -0.254,1.09 -0.579,2.059 -0.957,2.891 0.917,-0.187 1.816,-0.453 2.691,-0.789 0.676,-0.836 1.226,-1.762 1.633,-2.758 -1.11,0.281 -2.235,0.5 -3.367,0.656 z m -7.153,3.723 c -0.68,-0.117 -1.347,-0.273 -2.008,-0.469 0.817,0.723 1.778,1.266 2.817,1.598 -0.309,-0.344 -0.582,-0.723 -0.809,-1.129 z m 4.817,0.145 c -0.516,0.062 -1.039,0.097 -1.559,0.109 v 1.156 c 0.555,-0.14 1.086,-0.582 1.559,-1.265 z"
         style="fill:#f1c6ff;fill-opacity:1;fill-rule:nonzero;stroke:none"
         transform="matrix(0.83649333,0,0,0.83649333,48.941333,11.14668)"
         clip-path="url(#clipPath5)"
         id="path12" />
      <path
         d="M 10.715,22.242 C 10.297,21.438 9.941,20.438 9.66,19.293 c 1.004,0.113 2.043,0.187 3.09,0.199 v 2.926 C 12.066,22.402 11.387,22.344 10.715,22.242 Z M 21.66,18.281 c -0.308,0.852 -0.707,1.664 -1.195,2.426 0.75,-0.367 1.273,-0.707 1.515,-0.914 0.458,-0.641 0.848,-1.328 1.157,-2.051 -0.399,0.18 -0.899,0.363 -1.477,0.539 z m -3.676,-4.093 c -0.027,1.417 -0.172,2.832 -0.429,4.226 1.191,-0.176 2.375,-0.426 3.535,-0.754 0.375,-1.137 0.594,-2.375 0.64,-3.668 -0.929,0.082 -2.148,0.153 -3.746,0.196 z m -1.976,8.726 c -0.227,0.406 -0.5,0.785 -0.809,1.129 1.039,-0.332 2,-0.875 2.817,-1.598 -0.661,0.196 -1.328,0.352 -2.008,0.469 z M 26.625,2.25 c -1.035,0 -1.875,-0.84 -1.875,-1.875 0,-0.5 -0.75,-0.5 -0.75,0 0,1.035 -0.84,1.875 -1.875,1.875 -0.5,0 -0.5,0.75 0,0.75 C 23.16,3 24,3.84 24,4.875 c 0,0.5 0.75,0.5 0.75,0 C 24.75,3.84 25.59,3 26.625,3 c 0.5,0 0.5,-0.75 0,-0.75 z"
         style="fill:#ccb3ff;fill-opacity:1;fill-rule:nonzero;stroke:none"
         transform="matrix(0.83649333,0,0,0.83649333,48.941333,11.14668)"
         clip-path="url(#clipPath6)"
         id="path13" />
      <path
         d="M 13.5,3.762 V 2.676 C 14.035,2.812 14.543,3.23 15,3.867 14.508,3.809 14.004,3.773 13.5,3.762 Z m 2.906,1.093 c 0.469,1.004 0.848,2.219 1.121,3.598 1.203,0.106 2.371,0.246 3.391,0.418 C 20.461,7.652 19.832,6.559 19.066,5.637 18.203,5.309 17.312,5.047 16.406,4.855 Z M 13.5,9.004 V 13.5 c 1.367,-0.004 2.617,-0.023 3.75,-0.055 0,-1.441 -0.121,-2.879 -0.359,-4.3 C 15.762,9.059 14.633,9.012 13.5,9.004 Z m -0.75,9.738 V 14.25 c -1.246,0 -2.492,-0.016 -3.734,-0.043 0.039,1.539 0.203,3.004 0.468,4.316 1.02,0.125 2.114,0.204 3.266,0.219 z M 8.586,9.211 C 7.207,9.34 6.008,9.516 5.059,9.688 4.715,10.84 4.531,12.031 4.512,13.227 5.488,13.305 6.746,13.375 8.25,13.426 8.254,11.93 8.375,10.512 8.586,9.211 Z M 11.25,3.867 c 0.492,-0.058 0.996,-0.094 1.5,-0.105 V 2.676 C 12.215,2.812 11.707,3.23 11.25,3.867 Z M 4.473,9.031 C 4.805,8.043 5.258,7.098 5.824,6.223 5.105,6.574 4.594,6.898 4.348,7.105 3.828,7.812 3.395,8.582 3.059,9.398 3.523,9.246 3.996,9.125 4.473,9.031 Z M 9.812,22.082 C 9.434,21.25 9.109,20.281 8.859,19.191 7.723,19.035 6.598,18.816 5.488,18.535 c 0.41,0.992 0.961,1.922 1.637,2.758 0.777,0.301 1.687,0.582 2.687,0.789 z m 16.813,1.168 c -1.035,0 -1.875,-0.84 -1.875,-1.875 0,-0.5 -0.75,-0.5 -0.75,0 0,1.035 -0.84,1.875 -1.875,1.875 -0.5,0 -0.5,0.75 0,0.75 1.035,0 1.875,0.84 1.875,1.875 0,0.5 0.75,0.5 0.75,0 0,-1.035 0.84,-1.875 1.875,-1.875 0.5,0 0.5,-0.75 0,-0.75 z"
         style="fill:#b0f7ff;fill-opacity:1;fill-rule:nonzero;stroke:none"
         transform="matrix(0.83649333,0,0,0.83649333,48.941333,11.14668)"
         clip-path="url(#clipPath7)"
         id="path14" />
      <path
         d="M 22.715,6.945 C 22.668,6.859 22.609,6.781 22.543,6.711 17.887,0.27 8.371,0.262 3.707,6.711 3.629,6.797 3.57,6.871 3.535,6.945 c -2.769,4.032 -2.707,9.364 0.16,13.328 0.008,0.008 0.016,0.024 0.028,0.036 4.66,6.418 14.14,6.425 18.804,0 l 0.035,-0.032 c 2.86,-3.965 2.922,-9.3 0.153,-13.332 z M 21.98,19.793 c -0.242,0.207 -0.765,0.543 -1.515,0.914 0.488,-0.762 0.887,-1.574 1.195,-2.426 0.504,-0.148 0.996,-0.328 1.477,-0.539 -0.309,0.723 -0.699,1.41 -1.157,2.051 z M 3.113,17.742 c 0.403,0.18 0.899,0.363 1.477,0.539 0.316,0.871 0.719,1.688 1.195,2.426 C 5.035,20.34 4.512,20 4.27,19.793 3.812,19.152 3.422,18.465 3.113,17.742 Z m 20.399,-1.019 c -0.157,0.136 -0.707,0.39 -1.567,0.675 0.317,-1.097 0.504,-2.265 0.539,-3.484 0.692,-0.082 1.176,-0.168 1.508,-0.258 -0.012,1.039 -0.172,2.074 -0.48,3.067 z M 2.277,12.941 c 0.047,-0.914 0.196,-1.8 0.453,-2.64 0.176,-0.106 0.696,-0.27 1.5,-0.446 C 3.945,10.934 3.789,12.047 3.766,13.16 3.031,13.09 2.523,13.012 2.277,12.941 Z M 5.059,9.688 C 6.227,9.48 7.402,9.32 8.586,9.211 8.363,10.605 8.25,12.012 8.25,13.426 7.004,13.387 5.758,13.32 4.512,13.227 4.535,11.984 4.727,10.797 5.059,9.688 Z m 18.914,3.253 c -0.246,0.071 -0.754,0.149 -1.489,0.219 -0.023,-1.113 -0.179,-2.226 -0.464,-3.305 0.804,0.176 1.324,0.34 1.5,0.446 0.257,0.84 0.406,1.726 0.453,2.64 z m -2.235,0.286 c -0.976,0.078 -2.234,0.148 -3.738,0.199 0,-1.41 -0.113,-2.821 -0.336,-4.211 1.379,0.129 2.578,0.301 3.527,0.476 0.332,1.106 0.524,2.293 0.547,3.536 z M 13.5,4.512 c 0.691,0.015 1.359,0.078 2.004,0.179 0.512,0.973 0.941,2.239 1.246,3.7 C 15.668,8.312 14.582,8.266 13.5,8.254 Z M 12.75,8.254 C 11.668,8.266 10.582,8.312 9.5,8.391 9.805,6.926 10.234,5.664 10.746,4.691 11.41,4.586 12.078,4.527 12.75,4.512 Z m 0,0.75 V 13.5 C 11.5,13.496 10.25,13.48 9,13.445 9.004,11.926 9.133,10.473 9.359,9.145 10.488,9.059 11.617,9.012 12.75,9.004 Z m 0,5.246 v 4.492 C 11.66,18.73 10.57,18.656 9.484,18.523 9.219,17.211 9.055,15.746 9.016,14.207 c 1.082,0.027 2.32,0.039 3.734,0.043 z m 0,5.242 v 2.926 C 12.066,22.402 11.387,22.344 10.715,22.242 10.297,21.438 9.941,20.438 9.66,19.293 c 1.004,0.113 2.043,0.187 3.09,0.199 z m 0.75,0 c 1.031,-0.015 2.062,-0.082 3.09,-0.199 -0.281,1.145 -0.641,2.145 -1.055,2.949 -0.648,0.098 -1.328,0.16 -2.035,0.176 z m 0,-0.75 V 14.25 c 1.414,-0.004 2.652,-0.016 3.734,-0.043 -0.039,1.539 -0.203,3.004 -0.468,4.316 -1.086,0.133 -2.176,0.207 -3.266,0.219 z m 0,-5.242 V 9.004 c 1.203,0.008 2.34,0.062 3.387,0.141 0.23,1.328 0.359,2.781 0.363,4.3 -1.133,0.032 -2.383,0.051 -3.75,0.055 z M 17.527,8.453 C 17.254,7.078 16.875,5.859 16.406,4.855 c 0.906,0.192 1.797,0.454 2.66,0.786 0.766,0.918 1.395,2.011 1.852,3.23 C 19.793,8.688 18.66,8.547 17.527,8.453 Z M 15.969,4.016 C 15.75,3.637 15.492,3.281 15.199,2.957 16.203,3.273 17.129,3.789 17.93,4.473 17.305,4.293 16.652,4.137 15.969,4.016 Z M 15,3.867 C 14.508,3.809 14.004,3.773 13.5,3.762 V 2.676 C 14.035,2.812 14.543,3.23 15,3.867 Z M 12.75,3.762 c -0.504,0.011 -1.008,0.047 -1.5,0.105 0.461,-0.637 0.965,-1.055 1.5,-1.191 z M 10.281,4.016 C 9.598,4.137 8.945,4.293 8.32,4.473 9.121,3.789 10.047,3.273 11.051,2.957 10.758,3.281 10.5,3.637 10.281,4.016 Z M 9.844,4.855 C 9.375,5.859 8.996,7.074 8.723,8.453 7.59,8.547 6.457,8.688 5.332,8.871 5.789,7.652 6.418,6.559 7.184,5.637 8.047,5.309 8.938,5.047 9.844,4.855 Z m -1.578,9.333 c 0.035,1.511 0.183,2.937 0.429,4.226 C 7.504,18.238 6.32,17.988 5.16,17.66 4.773,16.473 4.559,15.238 4.52,13.992 c 0.929,0.082 2.148,0.153 3.746,0.196 z m 0.589,5.003 c 0.254,1.09 0.579,2.059 0.957,2.891 C 8.895,21.895 7.996,21.629 7.121,21.293 6.445,20.457 5.895,19.531 5.488,18.535 6.48,18.793 7.629,19.02 8.855,19.191 Z m 1.387,3.723 c 0.227,0.406 0.5,0.785 0.809,1.129 -1.039,-0.332 -2,-0.875 -2.817,-1.598 0.629,0.188 1.301,0.344 2.008,0.469 z m 0.949,0.145 c 0.516,0.062 1.039,0.097 1.559,0.109 v 1.156 c -0.555,-0.14 -1.086,-0.582 -1.559,-1.265 z m 2.309,0.109 c 0.52,-0.012 1.043,-0.047 1.559,-0.109 -0.473,0.683 -1.004,1.125 -1.559,1.265 z m 2.508,-0.254 c 0.707,-0.125 1.379,-0.281 2.008,-0.469 -0.817,0.723 -1.778,1.266 -2.817,1.598 0.309,-0.344 0.582,-0.723 0.809,-1.129 z m 0.43,-0.832 c 0.378,-0.832 0.703,-1.801 0.953,-2.891 1.136,-0.156 2.261,-0.375 3.371,-0.656 -0.41,0.992 -0.961,1.922 -1.637,2.758 -0.871,0.336 -1.773,0.598 -2.687,0.789 z m 1.117,-3.668 c 0.246,-1.289 0.394,-2.715 0.433,-4.226 1.594,-0.043 2.813,-0.114 3.742,-0.196 -0.039,1.246 -0.253,2.481 -0.64,3.668 -0.961,0.274 -2.16,0.551 -3.535,0.754 z M 23.191,9.398 C 22.727,9.246 22.254,9.125 21.777,9.031 21.445,8.043 20.992,7.098 20.426,6.223 c 0.719,0.351 1.23,0.675 1.476,0.882 0.52,0.707 0.953,1.477 1.289,2.293 z M 5.824,6.223 C 5.258,7.098 4.805,8.043 4.473,9.031 3.996,9.125 3.523,9.246 3.059,9.398 3.395,8.582 3.828,7.812 4.348,7.105 4.594,6.898 5.105,6.578 5.824,6.223 Z m -2.058,7.691 c 0.035,1.219 0.222,2.387 0.539,3.484 C 3.445,17.113 2.895,16.859 2.738,16.723 2.434,15.73 2.27,14.695 2.258,13.656 c 0.332,0.09 0.816,0.18 1.508,0.258 z M 3.375,4.5 C 2.754,4.5 2.25,5.004 2.25,5.625 2.25,6.121 1.5,6.121 1.5,5.625 1.5,5.004 0.996,4.5 0.375,4.5 c -0.496,0 -0.496,-0.75 0,-0.75 0.621,0 1.125,-0.504 1.125,-1.125 0,-0.496 0.75,-0.496 0.75,0 0,0.621 0.504,1.125 1.125,1.125 0.496,0 0.496,0.75 0,0.75 z"
         style="fill:#49a8ff;fill-opacity:1;fill-rule:nonzero;stroke:none"
         transform="matrix(0.83649333,0,0,0.83649333,48.941333,11.14668)"
         clip-path="url(#clipPath8)"
         id="path15" />
    </g>
    <g
       id="g29">
      <path
         d="m 17.234,14.207 c -0.039,1.539 -0.203,3.004 -0.468,4.316 C 15.68,18.656 14.59,18.73 13.5,18.742 V 14.25 c 1.414,-0.004 2.652,-0.016 3.734,-0.043 z M 15.969,4.016 c 0.683,0.121 1.336,0.277 1.961,0.457 -0.801,-0.684 -1.727,-1.2 -2.731,-1.516 0.274,0.297 0.531,0.652 0.77,1.059 z M 9.5,8.391 C 10.582,8.312 11.668,8.266 12.75,8.254 V 4.512 C 12.059,4.527 11.391,4.59 10.746,4.691 10.234,5.664 9.805,6.93 9.5,8.391 Z m -6.77,1.91 c -0.257,0.859 -0.41,1.746 -0.453,2.64 0.246,0.071 0.754,0.149 1.489,0.219 0.023,-1.113 0.179,-2.226 0.464,-3.305 -0.804,0.176 -1.324,0.34 -1.5,0.446 z M 12.75,13.5 V 9.004 C 11.547,9.012 10.41,9.066 9.363,9.145 9.121,10.566 9,12.004 9,13.445 c 1.133,0.032 2.383,0.051 3.75,0.055 z M 10.281,4.016 C 10.5,3.637 10.758,3.281 11.051,2.957 10.047,3.273 9.121,3.789 8.32,4.473 8.945,4.293 9.598,4.137 10.281,4.016 Z"
         style="fill:#ade3ff;fill-opacity:1;fill-rule:nonzero;stroke:none"
         transform="matrix(0.83649333,0,0,0.83649333,14.926667,67.840013)"
         clip-path="url(#clipPath16)"
         id="path23" />
      <path
         d="M 16.75,8.391 C 15.668,8.312 14.582,8.266 13.5,8.254 V 4.512 c 0.691,0.015 1.359,0.078 2.004,0.179 0.512,0.973 0.941,2.239 1.246,3.7 z M 4.305,17.398 C 3.98,16.266 3.797,15.094 3.766,13.914 3.074,13.836 2.59,13.746 2.258,13.656 c 0.015,1.067 0.18,2.098 0.48,3.067 0.157,0.136 0.707,0.39 1.567,0.675 z M 8.723,8.453 C 8.996,7.078 9.375,5.859 9.844,4.855 8.938,5.047 8.047,5.309 7.184,5.641 6.418,6.559 5.789,7.652 5.332,8.871 6.352,8.699 7.52,8.559 8.723,8.453 Z M 5.785,20.707 C 5.035,20.34 4.512,20 4.27,19.793 3.812,19.152 3.422,18.465 3.113,17.742 c 0.403,0.18 0.899,0.363 1.477,0.539 0.316,0.871 0.719,1.684 1.195,2.426 z M 18,13.426 c 1.504,-0.051 2.762,-0.121 3.738,-0.199 C 21.719,12.031 21.535,10.84 21.191,9.688 20.023,9.48 18.848,9.32 17.664,9.211 17.875,10.512 17.996,11.93 18,13.426 Z m 3.777,-4.395 c 0.547,0.11 1.028,0.235 1.414,0.367 C 22.855,8.582 22.422,7.812 21.902,7.105 21.656,6.898 21.145,6.578 20.426,6.223 c 0.566,0.875 1.019,1.82 1.351,2.808 z M 8.695,18.414 C 8.438,17.02 8.293,15.605 8.262,14.188 6.668,14.145 5.449,14.074 4.52,13.992 c 0.046,1.293 0.261,2.531 0.64,3.668 0.961,0.274 2.16,0.551 3.535,0.754 z"
         style="fill:#f0ffff;fill-opacity:1;fill-rule:nonzero;stroke:none"
         transform="matrix(0.83649333,0,0,0.83649333,14.926667,67.840013)"
         clip-path="url(#clipPath17)"
         id="path24" />
      <path
         d="m 15.535,22.242 c -0.648,0.098 -1.328,0.16 -2.035,0.176 v -2.926 c 1.031,-0.015 2.062,-0.082 3.09,-0.199 -0.281,1.145 -0.637,2.145 -1.055,2.949 z m 6.953,-9.082 c 0.731,-0.07 1.239,-0.148 1.485,-0.219 -0.043,-0.894 -0.196,-1.781 -0.453,-2.64 -0.176,-0.106 -0.696,-0.27 -1.497,-0.446 0.278,1.047 0.438,2.153 0.465,3.305 z m -11.297,9.899 c 0.473,0.683 1.004,1.125 1.559,1.265 v -1.156 c -0.52,-0.012 -1.043,-0.047 -1.559,-0.109 z"
         style="fill:#a8c1ff;fill-opacity:1;fill-rule:nonzero;stroke:none"
         transform="matrix(0.83649333,0,0,0.83649333,14.926667,67.840013)"
         clip-path="url(#clipPath18)"
         id="path25" />
      <path
         d="m 23.992,13.656 c -0.012,1.039 -0.176,2.074 -0.48,3.067 -0.157,0.136 -0.707,0.39 -1.567,0.675 0.317,-1.093 0.504,-2.265 0.539,-3.484 0.692,-0.078 1.176,-0.168 1.508,-0.258 z m -6.597,5.535 c -0.254,1.09 -0.579,2.059 -0.957,2.891 0.917,-0.187 1.816,-0.453 2.691,-0.789 0.676,-0.836 1.226,-1.762 1.633,-2.758 -1.11,0.281 -2.235,0.5 -3.367,0.656 z m -7.153,3.723 c -0.68,-0.117 -1.347,-0.273 -2.008,-0.469 0.817,0.723 1.778,1.266 2.817,1.598 -0.309,-0.344 -0.582,-0.723 -0.809,-1.129 z m 4.817,0.145 c -0.516,0.062 -1.039,0.097 -1.559,0.109 v 1.156 c 0.555,-0.14 1.086,-0.582 1.559,-1.265 z"
         style="fill:#f1c6ff;fill-opacity:1;fill-rule:nonzero;stroke:none"
         transform="matrix(0.83649333,0,0,0.83649333,14.926667,67.840013)"
         clip-path="url(#clipPath19)"
         id="path26" />
      <path
         d="M 10.715,22.242 C 10.297,21.438 9.941,20.438 9.66,19.293 c 1.004,0.113 2.043,0.187 3.09,0.199 v 2.926 C 12.066,22.402 11.387,22.344 10.715,22.242 Z M 21.66,18.281 c -0.308,0.852 -0.707,1.664 -1.195,2.426 0.75,-0.367 1.273,-0.707 1.515,-0.914 0.458,-0.641 0.848,-1.328 1.157,-2.051 -0.399,0.18 -0.899,0.363 -1.477,0.539 z m -3.676,-4.093 c -0.027,1.417 -0.172,2.832 -0.429,4.226 1.191,-0.176 2.375,-0.426 3.535,-0.754 0.375,-1.137 0.594,-2.375 0.64,-3.668 -0.929,0.082 -2.148,0.153 -3.746,0.196 z m -1.976,8.726 c -0.227,0.406 -0.5,0.785 -0.809,1.129 1.039,-0.332 2,-0.875 2.817,-1.598 -0.661,0.196 -1.328,0.352 -2.008,0.469 z M 26.625,2.25 c -1.035,0 -1.875,-0.84 -1.875,-1.875 0,-0.5 -0.75,-0.5 -0.75,0 0,1.035 -0.84,1.875 -1.875,1.875 -0.5,0 -0.5,0.75 0,0.75 C 23.16,3 24,3.84 24,4.875 c 0,0.5 0.75,0.5 0.75,0 C 24.75,3.84 25.59,3 26.625,3 c 0.5,0 0.5,-0.75 0,-0.75 z"
         style="fill:#ccb3ff;fill-opacity:1;fill-rule:nonzero;stroke:none"
         transform="matrix(0.83649333,0,0,0.83649333,14.926667,67.840013)"
         clip-path="url(#clipPath20)"
         id="path27" />
      <path
         d="M 13.5,3.762 V 2.676 C 14.035,2.812 14.543,3.23 15,3.867 14.508,3.809 14.004,3.773 13.5,3.762 Z m 2.906,1.093 c 0.469,1.004 0.848,2.219 1.121,3.598 1.203,0.106 2.371,0.246 3.391,0.418 C 20.461,7.652 19.832,6.559 19.066,5.637 18.203,5.309 17.312,5.047 16.406,4.855 Z M 13.5,9.004 V 13.5 c 1.367,-0.004 2.617,-0.023 3.75,-0.055 0,-1.441 -0.121,-2.879 -0.359,-4.3 C 15.762,9.059 14.633,9.012 13.5,9.004 Z m -0.75,9.738 V 14.25 c -1.246,0 -2.492,-0.016 -3.734,-0.043 0.039,1.539 0.203,3.004 0.468,4.316 1.02,0.125 2.114,0.204 3.266,0.219 z M 8.586,9.211 C 7.207,9.34 6.008,9.516 5.059,9.688 4.715,10.84 4.531,12.031 4.512,13.227 5.488,13.305 6.746,13.375 8.25,13.426 8.254,11.93 8.375,10.512 8.586,9.211 Z M 11.25,3.867 c 0.492,-0.058 0.996,-0.094 1.5,-0.105 V 2.676 C 12.215,2.812 11.707,3.23 11.25,3.867 Z M 4.473,9.031 C 4.805,8.043 5.258,7.098 5.824,6.223 5.105,6.574 4.594,6.898 4.348,7.105 3.828,7.812 3.395,8.582 3.059,9.398 3.523,9.246 3.996,9.125 4.473,9.031 Z M 9.812,22.082 C 9.434,21.25 9.109,20.281 8.859,19.191 7.723,19.035 6.598,18.816 5.488,18.535 c 0.41,0.992 0.961,1.922 1.637,2.758 0.777,0.301 1.687,0.582 2.687,0.789 z m 16.813,1.168 c -1.035,0 -1.875,-0.84 -1.875,-1.875 0,-0.5 -0.75,-0.5 -0.75,0 0,1.035 -0.84,1.875 -1.875,1.875 -0.5,0 -0.5,0.75 0,0.75 1.035,0 1.875,0.84 1.875,1.875 0,0.5 0.75,0.5 0.75,0 0,-1.035 0.84,-1.875 1.875,-1.875 0.5,0 0.5,-0.75 0,-0.75 z"
         style="fill:#b0f7ff;fill-opacity:1;fill-rule:nonzero;stroke:none"
         transform="matrix(0.83649333,0,0,0.83649333,14.926667,67.840013)"
         clip-path="url(#clipPath21)"
         id="path28" />
      <path
         d="M 22.715,6.945 C 22.668,6.859 22.609,6.781 22.543,6.711 17.887,0.27 8.371,0.262 3.707,6.711 3.629,6.797 3.57,6.871 3.535,6.945 c -2.769,4.032 -2.707,9.364 0.16,13.328 0.008,0.008 0.016,0.024 0.028,0.036 4.66,6.418 14.14,6.425 18.804,0 l 0.035,-0.032 c 2.86,-3.965 2.922,-9.3 0.153,-13.332 z M 21.98,19.793 c -0.242,0.207 -0.765,0.543 -1.515,0.914 0.488,-0.762 0.887,-1.574 1.195,-2.426 0.504,-0.148 0.996,-0.328 1.477,-0.539 -0.309,0.723 -0.699,1.41 -1.157,2.051 z M 3.113,17.742 c 0.403,0.18 0.899,0.363 1.477,0.539 0.316,0.871 0.719,1.688 1.195,2.426 C 5.035,20.34 4.512,20 4.27,19.793 3.812,19.152 3.422,18.465 3.113,17.742 Z m 20.399,-1.019 c -0.157,0.136 -0.707,0.39 -1.567,0.675 0.317,-1.097 0.504,-2.265 0.539,-3.484 0.692,-0.082 1.176,-0.168 1.508,-0.258 -0.012,1.039 -0.172,2.074 -0.48,3.067 z M 2.277,12.941 c 0.047,-0.914 0.196,-1.8 0.453,-2.64 0.176,-0.106 0.696,-0.27 1.5,-0.446 C 3.945,10.934 3.789,12.047 3.766,13.16 3.031,13.09 2.523,13.012 2.277,12.941 Z M 5.059,9.688 C 6.227,9.48 7.402,9.32 8.586,9.211 8.363,10.605 8.25,12.012 8.25,13.426 7.004,13.387 5.758,13.32 4.512,13.227 4.535,11.984 4.727,10.797 5.059,9.688 Z m 18.914,3.253 c -0.246,0.071 -0.754,0.149 -1.489,0.219 -0.023,-1.113 -0.179,-2.226 -0.464,-3.305 0.804,0.176 1.324,0.34 1.5,0.446 0.257,0.84 0.406,1.726 0.453,2.64 z m -2.235,0.286 c -0.976,0.078 -2.234,0.148 -3.738,0.199 0,-1.41 -0.113,-2.821 -0.336,-4.211 1.379,0.129 2.578,0.301 3.527,0.476 0.332,1.106 0.524,2.293 0.547,3.536 z M 13.5,4.512 c 0.691,0.015 1.359,0.078 2.004,0.179 0.512,0.973 0.941,2.239 1.246,3.7 C 15.668,8.312 14.582,8.266 13.5,8.254 Z M 12.75,8.254 C 11.668,8.266 10.582,8.312 9.5,8.391 9.805,6.926 10.234,5.664 10.746,4.691 11.41,4.586 12.078,4.527 12.75,4.512 Z m 0,0.75 V 13.5 C 11.5,13.496 10.25,13.48 9,13.445 9.004,11.926 9.133,10.473 9.359,9.145 10.488,9.059 11.617,9.012 12.75,9.004 Z m 0,5.246 v 4.492 C 11.66,18.73 10.57,18.656 9.484,18.523 9.219,17.211 9.055,15.746 9.016,14.207 c 1.082,0.027 2.32,0.039 3.734,0.043 z m 0,5.242 v 2.926 C 12.066,22.402 11.387,22.344 10.715,22.242 10.297,21.438 9.941,20.438 9.66,19.293 c 1.004,0.113 2.043,0.187 3.09,0.199 z m 0.75,0 c 1.031,-0.015 2.062,-0.082 3.09,-0.199 -0.281,1.145 -0.641,2.145 -1.055,2.949 -0.648,0.098 -1.328,0.16 -2.035,0.176 z m 0,-0.75 V 14.25 c 1.414,-0.004 2.652,-0.016 3.734,-0.043 -0.039,1.539 -0.203,3.004 -0.468,4.316 -1.086,0.133 -2.176,0.207 -3.266,0.219 z m 0,-5.242 V 9.004 c 1.203,0.008 2.34,0.062 3.387,0.141 0.23,1.328 0.359,2.781 0.363,4.3 -1.133,0.032 -2.383,0.051 -3.75,0.055 z M 17.527,8.453 C 17.254,7.078 16.875,5.859 16.406,4.855 c 0.906,0.192 1.797,0.454 2.66,0.786 0.766,0.918 1.395,2.011 1.852,3.23 C 19.793,8.688 18.66,8.547 17.527,8.453 Z M 15.969,4.016 C 15.75,3.637 15.492,3.281 15.199,2.957 16.203,3.273 17.129,3.789 17.93,4.473 17.305,4.293 16.652,4.137 15.969,4.016 Z M 15,3.867 C 14.508,3.809 14.004,3.773 13.5,3.762 V 2.676 C 14.035,2.812 14.543,3.23 15,3.867 Z M 12.75,3.762 c -0.504,0.011 -1.008,0.047 -1.5,0.105 0.461,-0.637 0.965,-1.055 1.5,-1.191 z M 10.281,4.016 C 9.598,4.137 8.945,4.293 8.32,4.473 9.121,3.789 10.047,3.273 11.051,2.957 10.758,3.281 10.5,3.637 10.281,4.016 Z M 9.844,4.855 C 9.375,5.859 8.996,7.074 8.723,8.453 7.59,8.547 6.457,8.688 5.332,8.871 5.789,7.652 6.418,6.559 7.184,5.637 8.047,5.309 8.938,5.047 9.844,4.855 Z m -1.578,9.333 c 0.035,1.511 0.183,2.937 0.429,4.226 C 7.504,18.238 6.32,17.988 5.16,17.66 4.773,16.473 4.559,15.238 4.52,13.992 c 0.929,0.082 2.148,0.153 3.746,0.196 z m 0.589,5.003 c 0.254,1.09 0.579,2.059 0.957,2.891 C 8.895,21.895 7.996,21.629 7.121,21.293 6.445,20.457 5.895,19.531 5.488,18.535 6.48,18.793 7.629,19.02 8.855,19.191 Z m 1.387,3.723 c 0.227,0.406 0.5,0.785 0.809,1.129 -1.039,-0.332 -2,-0.875 -2.817,-1.598 0.629,0.188 1.301,0.344 2.008,0.469 z m 0.949,0.145 c 0.516,0.062 1.039,0.097 1.559,0.109 v 1.156 c -0.555,-0.14 -1.086,-0.582 -1.559,-1.265 z m 2.309,0.109 c 0.52,-0.012 1.043,-0.047 1.559,-0.109 -0.473,0.683 -1.004,1.125 -1.559,1.265 z m 2.508,-0.254 c 0.707,-0.125 1.379,-0.281 2.008,-0.469 -0.817,0.723 -1.778,1.266 -2.817,1.598 0.309,-0.344 0.582,-0.723 0.809,-1.129 z m 0.43,-0.832 c 0.378,-0.832 0.703,-1.801 0.953,-2.891 1.136,-0.156 2.261,-0.375 3.371,-0.656 -0.41,0.992 -0.961,1.922 -1.637,2.758 -0.871,0.336 -1.773,0.598 -2.687,0.789 z m 1.117,-3.668 c 0.246,-1.289 0.394,-2.715 0.433,-4.226 1.594,-0.043 2.813,-0.114 3.742,-0.196 -0.039,1.246 -0.253,2.481 -0.64,3.668 -0.961,0.274 -2.16,0.551 -3.535,0.754 z M 23.191,9.398 C 22.727,9.246 22.254,9.125 21.777,9.031 21.445,8.043 20.992,7.098 20.426,6.223 c 0.719,0.351 1.23,0.675 1.476,0.882 0.52,0.707 0.953,1.477 1.289,2.293 z M 5.824,6.223 C 5.258,7.098 4.805,8.043 4.473,9.031 3.996,9.125 3.523,9.246 3.059,9.398 3.395,8.582 3.828,7.812 4.348,7.105 4.594,6.898 5.105,6.578 5.824,6.223 Z m -2.058,7.691 c 0.035,1.219 0.222,2.387 0.539,3.484 C 3.445,17.113 2.895,16.859 2.738,16.723 2.434,15.73 2.27,14.695 2.258,13.656 c 0.332,0.09 0.816,0.18 1.508,0.258 z M 3.375,4.5 C 2.754,4.5 2.25,5.004 2.25,5.625 2.25,6.121 1.5,6.121 1.5,5.625 1.5,5.004 0.996,4.5 0.375,4.5 c -0.496,0 -0.496,-0.75 0,-0.75 0.621,0 1.125,-0.504 1.125,-1.125 0,-0.496 0.75,-0.496 0.75,0 0,0.621 0.504,1.125 1.125,1.125 0.496,0 0.496,0.75 0,0.75 z"
         style="fill:#49a8ff;fill-opacity:1;fill-rule:nonzero;stroke:none"
         transform="matrix(0.83649333,0,0,0.83649333,14.926667,67.840013)"
         clip-path="url(#clipPath22)"
         id="path29" />
    </g>
    <g
       id="g43">
      <path
         d="m 17.234,14.207 c -0.039,1.539 -0.203,3.004 -0.468,4.316 C 15.68,18.656 14.59,18.73 13.5,18.742 V 14.25 c 1.414,-0.004 2.652,-0.016 3.734,-0.043 z M 15.969,4.016 c 0.683,0.121 1.336,0.277 1.961,0.457 -0.801,-0.684 -1.727,-1.2 -2.731,-1.516 0.274,0.297 0.531,0.652 0.77,1.059 z M 9.5,8.391 C 10.582,8.312 11.668,8.266 12.75,8.254 V 4.512 C 12.059,4.527 11.391,4.59 10.746,4.691 10.234,5.664 9.805,6.93 9.5,8.391 Z m -6.77,1.91 c -0.257,0.859 -0.41,1.746 -0.453,2.64 0.246,0.071 0.754,0.149 1.489,0.219 0.023,-1.113 0.179,-2.226 0.464,-3.305 -0.804,0.176 -1.324,0.34 -1.5,0.446 z M 12.75,13.5 V 9.004 C 11.547,9.012 10.41,9.066 9.363,9.145 9.121,10.566 9,12.004 9,13.445 c 1.133,0.032 2.383,0.051 3.75,0.055 z M 10.281,4.016 C 10.5,3.637 10.758,3.281 11.051,2.957 10.047,3.273 9.121,3.789 8.32,4.473 8.945,4.293 9.598,4.137 10.281,4.016 Z"
         style="fill:#ade3ff;fill-opacity:1;fill-rule:nonzero;stroke:none"
         transform="matrix(0.83649333,0,0,0.83649333,82.957333,67.840013)"
         clip-path="url(#clipPath30)"
         id="path37" />
      <path
         d="M 16.75,8.391 C 15.668,8.312 14.582,8.266 13.5,8.254 V 4.512 c 0.691,0.015 1.359,0.078 2.004,0.179 0.512,0.973 0.941,2.239 1.246,3.7 z M 4.305,17.398 C 3.98,16.266 3.797,15.094 3.766,13.914 3.074,13.836 2.59,13.746 2.258,13.656 c 0.015,1.067 0.18,2.098 0.48,3.067 0.157,0.136 0.707,0.39 1.567,0.675 z M 8.723,8.453 C 8.996,7.078 9.375,5.859 9.844,4.855 8.938,5.047 8.047,5.309 7.184,5.641 6.418,6.559 5.789,7.652 5.332,8.871 6.352,8.699 7.52,8.559 8.723,8.453 Z M 5.785,20.707 C 5.035,20.34 4.512,20 4.27,19.793 3.812,19.152 3.422,18.465 3.113,17.742 c 0.403,0.18 0.899,0.363 1.477,0.539 0.316,0.871 0.719,1.684 1.195,2.426 z M 18,13.426 c 1.504,-0.051 2.762,-0.121 3.738,-0.199 C 21.719,12.031 21.535,10.84 21.191,9.688 20.023,9.48 18.848,9.32 17.664,9.211 17.875,10.512 17.996,11.93 18,13.426 Z m 3.777,-4.395 c 0.547,0.11 1.028,0.235 1.414,0.367 C 22.855,8.582 22.422,7.812 21.902,7.105 21.656,6.898 21.145,6.578 20.426,6.223 c 0.566,0.875 1.019,1.82 1.351,2.808 z M 8.695,18.414 C 8.438,17.02 8.293,15.605 8.262,14.188 6.668,14.145 5.449,14.074 4.52,13.992 c 0.046,1.293 0.261,2.531 0.64,3.668 0.961,0.274 2.16,0.551 3.535,0.754 z"
         style="fill:#f0ffff;fill-opacity:1;fill-rule:nonzero;stroke:none"
         transform="matrix(0.83649333,0,0,0.83649333,82.957333,67.840013)"
         clip-path="url(#clipPath31)"
         id="path38" />
      <path
         d="m 15.535,22.242 c -0.648,0.098 -1.328,0.16 -2.035,0.176 v -2.926 c 1.031,-0.015 2.062,-0.082 3.09,-0.199 -0.281,1.145 -0.637,2.145 -1.055,2.949 z m 6.953,-9.082 c 0.731,-0.07 1.239,-0.148 1.485,-0.219 -0.043,-0.894 -0.196,-1.781 -0.453,-2.64 -0.176,-0.106 -0.696,-0.27 -1.497,-0.446 0.278,1.047 0.438,2.153 0.465,3.305 z m -11.297,9.899 c 0.473,0.683 1.004,1.125 1.559,1.265 v -1.156 c -0.52,-0.012 -1.043,-0.047 -1.559,-0.109 z"
         style="fill:#a8c1ff;fill-opacity:1;fill-rule:nonzero;stroke:none"
         transform="matrix(0.83649333,0,0,0.83649333,82.957333,67.840013)"
         clip-path="url(#clipPath32)"
         id="path39" />
      <path
         d="m 23.992,13.656 c -0.012,1.039 -0.176,2.074 -0.48,3.067 -0.157,0.136 -0.707,0.39 -1.567,0.675 0.317,-1.093 0.504,-2.265 0.539,-3.484 0.692,-0.078 1.176,-0.168 1.508,-0.258 z m -6.597,5.535 c -0.254,1.09 -0.579,2.059 -0.957,2.891 0.917,-0.187 1.816,-0.453 2.691,-0.789 0.676,-0.836 1.226,-1.762 1.633,-2.758 -1.11,0.281 -2.235,0.5 -3.367,0.656 z m -7.153,3.723 c -0.68,-0.117 -1.347,-0.273 -2.008,-0.469 0.817,0.723 1.778,1.266 2.817,1.598 -0.309,-0.344 -0.582,-0.723 -0.809,-1.129 z m 4.817,0.145 c -0.516,0.062 -1.039,0.097 -1.559,0.109 v 1.156 c 0.555,-0.14 1.086,-0.582 1.559,-1.265 z"
         style="fill:#f1c6ff;fill-opacity:1;fill-rule:nonzero;stroke:none"
         transform="matrix(0.83649333,0,0,0.83649333,82.957333,67.840013)"
         clip-path="url(#clipPath33)"
         id="path40" />
      <path
         d="M 10.715,22.242 C 10.297,21.438 9.941,20.438 9.66,19.293 c 1.004,0.113 2.043,0.187 3.09,0.199 v 2.926 C 12.066,22.402 11.387,22.344 10.715,22.242 Z M 21.66,18.281 c -0.308,0.852 -0.707,1.664 -1.195,2.426 0.75,-0.367 1.273,-0.707 1.515,-0.914 0.458,-0.641 0.848,-1.328 1.157,-2.051 -0.399,0.18 -0.899,0.363 -1.477,0.539 z m -3.676,-4.093 c -0.027,1.417 -0.172,2.832 -0.429,4.226 1.191,-0.176 2.375,-0.426 3.535,-0.754 0.375,-1.137 0.594,-2.375 0.64,-3.668 -0.929,0.082 -2.148,0.153 -3.746,0.196 z m -1.976,8.726 c -0.227,0.406 -0.5,0.785 -0.809,1.129 1.039,-0.332 2,-0.875 2.817,-1.598 -0.661,0.196 -1.328,0.352 -2.008,0.469 z M 26.625,2.25 c -1.035,0 -1.875,-0.84 -1.875,-1.875 0,-0.5 -0.75,-0.5 -0.75,0 0,1.035 -0.84,1.875 -1.875,1.875 -0.5,0 -0.5,0.75 0,0.75 C 23.16,3 24,3.84 24,4.875 c 0,0.5 0.75,0.5 0.75,0 C 24.75,3.84 25.59,3 26.625,3 c 0.5,0 0.5,-0.75 0,-0.75 z"
         style="fill:#ccb3ff;fill-opacity:1;fill-rule:nonzero;stroke:none"
         transform="matrix(0.83649333,0,0,0.83649333,82.957333,67.840013)"
         clip-path="url(#clipPath34)"
         id="path41" />
      <path
         d="M 13.5,3.762 V 2.676 C 14.035,2.812 14.543,3.23 15,3.867 14.508,3.809 14.004,3.773 13.5,3.762 Z m 2.906,1.093 c 0.469,1.004 0.848,2.219 1.121,3.598 1.203,0.106 2.371,0.246 3.391,0.418 C 20.461,7.652 19.832,6.559 19.066,5.637 18.203,5.309 17.312,5.047 16.406,4.855 Z M 13.5,9.004 V 13.5 c 1.367,-0.004 2.617,-0.023 3.75,-0.055 0,-1.441 -0.121,-2.879 -0.359,-4.3 C 15.762,9.059 14.633,9.012 13.5,9.004 Z m -0.75,9.738 V 14.25 c -1.246,0 -2.492,-0.016 -3.734,-0.043 0.039,1.539 0.203,3.004 0.468,4.316 1.02,0.125 2.114,0.204 3.266,0.219 z M 8.586,9.211 C 7.207,9.34 6.008,9.516 5.059,9.688 4.715,10.84 4.531,12.031 4.512,13.227 5.488,13.305 6.746,13.375 8.25,13.426 8.254,11.93 8.375,10.512 8.586,9.211 Z M 11.25,3.867 c 0.492,-0.058 0.996,-0.094 1.5,-0.105 V 2.676 C 12.215,2.812 11.707,3.23 11.25,3.867 Z M 4.473,9.031 C 4.805,8.043 5.258,7.098 5.824,6.223 5.105,6.574 4.594,6.898 4.348,7.105 3.828,7.812 3.395,8.582 3.059,9.398 3.523,9.246 3.996,9.125 4.473,9.031 Z M 9.812,22.082 C 9.434,21.25 9.109,20.281 8.859,19.191 7.723,19.035 6.598,18.816 5.488,18.535 c 0.41,0.992 0.961,1.922 1.637,2.758 0.777,0.301 1.687,0.582 2.687,0.789 z m 16.813,1.168 c -1.035,0 -1.875,-0.84 -1.875,-1.875 0,-0.5 -0.75,-0.5 -0.75,0 0,1.035 -0.84,1.875 -1.875,1.875 -0.5,0 -0.5,0.75 0,0.75 1.035,0 1.875,0.84 1.875,1.875 0,0.5 0.75,0.5 0.75,0 0,-1.035 0.84,-1.875 1.875,-1.875 0.5,0 0.5,-0.75 0,-0.75 z"
         style="fill:#b0f7ff;fill-opacity:1;fill-rule:nonzero;stroke:none"
         transform="matrix(0.83649333,0,0,0.83649333,82.957333,67.840013)"
         clip-path="url(#clipPath35)"
         id="path42" />
      <path
         d="M 22.715,6.945 C 22.668,6.859 22.609,6.781 22.543,6.711 17.887,0.27 8.371,0.262 3.707,6.711 3.629,6.797 3.57,6.871 3.535,6.945 c -2.769,4.032 -2.707,9.364 0.16,13.328 0.008,0.008 0.016,0.024 0.028,0.036 4.66,6.418 14.14,6.425 18.804,0 l 0.035,-0.032 c 2.86,-3.965 2.922,-9.3 0.153,-13.332 z M 21.98,19.793 c -0.242,0.207 -0.765,0.543 -1.515,0.914 0.488,-0.762 0.887,-1.574 1.195,-2.426 0.504,-0.148 0.996,-0.328 1.477,-0.539 -0.309,0.723 -0.699,1.41 -1.157,2.051 z M 3.113,17.742 c 0.403,0.18 0.899,0.363 1.477,0.539 0.316,0.871 0.719,1.688 1.195,2.426 C 5.035,20.34 4.512,20 4.27,19.793 3.812,19.152 3.422,18.465 3.113,17.742 Z m 20.399,-1.019 c -0.157,0.136 -0.707,0.39 -1.567,0.675 0.317,-1.097 0.504,-2.265 0.539,-3.484 0.692,-0.082 1.176,-0.168 1.508,-0.258 -0.012,1.039 -0.172,2.074 -0.48,3.067 z M 2.277,12.941 c 0.047,-0.914 0.196,-1.8 0.453,-2.64 0.176,-0.106 0.696,-0.27 1.5,-0.446 C 3.945,10.934 3.789,12.047 3.766,13.16 3.031,13.09 2.523,13.012 2.277,12.941 Z M 5.059,9.688 C 6.227,9.48 7.402,9.32 8.586,9.211 8.363,10.605 8.25,12.012 8.25,13.426 7.004,13.387 5.758,13.32 4.512,13.227 4.535,11.984 4.727,10.797 5.059,9.688 Z m 18.914,3.253 c -0.246,0.071 -0.754,0.149 -1.489,0.219 -0.023,-1.113 -0.179,-2.226 -0.464,-3.305 0.804,0.176 1.324,0.34 1.5,0.446 0.257,0.84 0.406,1.726 0.453,2.64 z m -2.235,0.286 c -0.976,0.078 -2.234,0.148 -3.738,0.199 0,-1.41 -0.113,-2.821 -0.336,-4.211 1.379,0.129 2.578,0.301 3.527,0.476 0.332,1.106 0.524,2.293 0.547,3.536 z M 13.5,4.512 c 0.691,0.015 1.359,0.078 2.004,0.179 0.512,0.973 0.941,2.239 1.246,3.7 C 15.668,8.312 14.582,8.266 13.5,8.254 Z M 12.75,8.254 C 11.668,8.266 10.582,8.312 9.5,8.391 9.805,6.926 10.234,5.664 10.746,4.691 11.41,4.586 12.078,4.527 12.75,4.512 Z m 0,0.75 V 13.5 C 11.5,13.496 10.25,13.48 9,13.445 9.004,11.926 9.133,10.473 9.359,9.145 10.488,9.059 11.617,9.012 12.75,9.004 Z m 0,5.246 v 4.492 C 11.66,18.73 10.57,18.656 9.484,18.523 9.219,17.211 9.055,15.746 9.016,14.207 c 1.082,0.027 2.32,0.039 3.734,0.043 z m 0,5.242 v 2.926 C 12.066,22.402 11.387,22.344 10.715,22.242 10.297,21.438 9.941,20.438 9.66,19.293 c 1.004,0.113 2.043,0.187 3.09,0.199 z m 0.75,0 c 1.031,-0.015 2.062,-0.082 3.09,-0.199 -0.281,1.145 -0.641,2.145 -1.055,2.949 -0.648,0.098 -1.328,0.16 -2.035,0.176 z m 0,-0.75 V 14.25 c 1.414,-0.004 2.652,-0.016 3.734,-0.043 -0.039,1.539 -0.203,3.004 -0.468,4.316 -1.086,0.133 -2.176,0.207 -3.266,0.219 z m 0,-5.242 V 9.004 c 1.203,0.008 2.34,0.062 3.387,0.141 0.23,1.328 0.359,2.781 0.363,4.3 -1.133,0.032 -2.383,0.051 -3.75,0.055 z M 17.527,8.453 C 17.254,7.078 16.875,5.859 16.406,4.855 c 0.906,0.192 1.797,0.454 2.66,0.786 0.766,0.918 1.395,2.011 1.852,3.23 C 19.793,8.688 18.66,8.547 17.527,8.453 Z M 15.969,4.016 C 15.75,3.637 15.492,3.281 15.199,2.957 16.203,3.273 17.129,3.789 17.93,4.473 17.305,4.293 16.652,4.137 15.969,4.016 Z M 15,3.867 C 14.508,3.809 14.004,3.773 13.5,3.762 V 2.676 C 14.035,2.812 14.543,3.23 15,3.867 Z M 12.75,3.762 c -0.504,0.011 -1.008,0.047 -1.5,0.105 0.461,-0.637 0.965,-1.055 1.5,-1.191 z M 10.281,4.016 C 9.598,4.137 8.945,4.293 8.32,4.473 9.121,3.789 10.047,3.273 11.051,2.957 10.758,3.281 10.5,3.637 10.281,4.016 Z M 9.844,4.855 C 9.375,5.859 8.996,7.074 8.723,8.453 7.59,8.547 6.457,8.688 5.332,8.871 5.789,7.652 6.418,6.559 7.184,5.637 8.047,5.309 8.938,5.047 9.844,4.855 Z m -1.578,9.333 c 0.035,1.511 0.183,2.937 0.429,4.226 C 7.504,18.238 6.32,17.988 5.16,17.66 4.773,16.473 4.559,15.238 4.52,13.992 c 0.929,0.082 2.148,0.153 3.746,0.196 z m 0.589,5.003 c 0.254,1.09 0.579,2.059 0.957,2.891 C 8.895,21.895 7.996,21.629 7.121,21.293 6.445,20.457 5.895,19.531 5.488,18.535 6.48,18.793 7.629,19.02 8.855,19.191 Z m 1.387,3.723 c 0.227,0.406 0.5,0.785 0.809,1.129 -1.039,-0.332 -2,-0.875 -2.817,-1.598 0.629,0.188 1.301,0.344 2.008,0.469 z m 0.949,0.145 c 0.516,0.062 1.039,0.097 1.559,0.109 v 1.156 c -0.555,-0.14 -1.086,-0.582 -1.559,-1.265 z m 2.309,0.109 c 0.52,-0.012 1.043,-0.047 1.559,-0.109 -0.473,0.683 -1.004,1.125 -1.559,1.265 z m 2.508,-0.254 c 0.707,-0.125 1.379,-0.281 2.008,-0.469 -0.817,0.723 -1.778,1.266 -2.817,1.598 0.309,-0.344 0.582,-0.723 0.809,-1.129 z m 0.43,-0.832 c 0.378,-0.832 0.703,-1.801 0.953,-2.891 1.136,-0.156 2.261,-0.375 3.371,-0.656 -0.41,0.992 -0.961,1.922 -1.637,2.758 -0.871,0.336 -1.773,0.598 -2.687,0.789 z m 1.117,-3.668 c 0.246,-1.289 0.394,-2.715 0.433,-4.226 1.594,-0.043 2.813,-0.114 3.742,-0.196 -0.039,1.246 -0.253,2.481 -0.64,3.668 -0.961,0.274 -2.16,0.551 -3.535,0.754 z M 23.191,9.398 C 22.727,9.246 22.254,9.125 21.777,9.031 21.445,8.043 20.992,7.098 20.426,6.223 c 0.719,0.351 1.23,0.675 1.476,0.882 0.52,0.707 0.953,1.477 1.289,2.293 z M 5.824,6.223 C 5.258,7.098 4.805,8.043 4.473,9.031 3.996,9.125 3.523,9.246 3.059,9.398 3.395,8.582 3.828,7.812 4.348,7.105 4.594,6.898 5.105,6.578 5.824,6.223 Z m -2.058,7.691 c 0.035,1.219 0.222,2.387 0.539,3.484 C 3.445,17.113 2.895,16.859 2.738,16.723 2.434,15.73 2.27,14.695 2.258,13.656 c 0.332,0.09 0.816,0.18 1.508,0.258 z M 3.375,4.5 C 2.754,4.5 2.25,5.004 2.25,5.625 2.25,6.121 1.5,6.121 1.5,5.625 1.5,5.004 0.996,4.5 0.375,4.5 c -0.496,0 -0.496,-0.75 0,-0.75 0.621,0 1.125,-0.504 1.125,-1.125 0,-0.496 0.75,-0.496 0.75,0 0,0.621 0.504,1.125 1.125,1.125 0.496,0 0.496,0.75 0,0.75 z"
         style="fill:#49a8ff;fill-opacity:1;fill-rule:nonzero;stroke:none"
         transform="matrix(0.83649333,0,0,0.83649333,82.957333,67.840013)"
         clip-path="url(#clipPath36)"
         id="path43" />
    </g>
    <path
       id="path44"
       d="M 11.98932,0 H 33.76414"
       style="fill:none;stroke:#000000;stroke-width:0.79701;stroke-linecap:butt;stroke-linejoin:miter;stroke-miterlimit:10;stroke-dasharray:none;stroke-opacity:1"
       transform="matrix(1.3333333,0,0,-1.3333333,26.218667,79.132)" />
    <path
       id="path45"
       d="M 4.19783,0 C 3.68233,0.1936 1.41629,1.29068 0,2.48457 V -2.48457 C 1.41629,-1.29068 3.68233,-0.1936 4.19783,0 Z"
       style="fill:#000000;fill-opacity:1;fill-rule:nonzero;stroke:#000000;stroke-width:0.79701;stroke-linecap:butt;stroke-linejoin:miter;stroke-miterlimit:10;stroke-dasharray:none;stroke-opacity:1"
       transform="matrix(1.3333333,0,0,-1.3333333,71.23752,79.132)" />
    <path
       id="path46"
       d="M 18.31937,30.53087 9.90337,16.50848"
       style="fill:none;stroke:#000000;stroke-width:0.79701;stroke-linecap:butt;stroke-linejoin:miter;stroke-miterlimit:10;stroke-dasharray:none;stroke-opacity:1"
       transform="matrix(1.3333333,0,0,-1.3333333,26.218667,79.132)" />
    <path
       id="path47"
       d="M 4.19783,0 C 3.68233,0.1936 1.41629,1.29068 0,2.48457 V -2.48457 C 1.41629,-1.29068 3.68233,-0.1936 4.19783,0 Z"
       style="fill:#000000;fill-opacity:1;fill-rule:nonzero;stroke:#000000;stroke-width:0.79701;stroke-linecap:butt;stroke-linejoin:miter;stroke-miterlimit:10;stroke-dasharray:none;stroke-opacity:1"
       transform="matrix(-0.68616,1.1431867,1.1431867,0.68616,39.423173,57.120667)" />
    <path
       id="path48"
       d="M 32.7047,30.53087 41.12094,16.50848"
       style="fill:none;stroke:#000000;stroke-width:0.79701;stroke-linecap:butt;stroke-linejoin:miter;stroke-miterlimit:10;stroke-dasharray:none;stroke-opacity:1"
       transform="matrix(1.3333333,0,0,-1.3333333,26.218667,79.132)" />
    <path
       id="path49"
       d="M 4.19783,0 C 3.68233,0.1936 1.41629,1.29068 0,2.48457 V -2.48457 C 1.41629,-1.29068 3.68233,-0.1936 4.19783,0 Z"
       style="fill:#000000;fill-opacity:1;fill-rule:nonzero;stroke:#000000;stroke-width:0.79701;stroke-linecap:butt;stroke-linejoin:miter;stroke-miterlimit:10;stroke-dasharray:none;stroke-opacity:1"
       transform="matrix(0.68616,1.1431867,1.1431867,-0.68616,81.046573,57.120667)" />
  </g>
</svg>
